<?xml version="1.0" standalone="no"?>
<!DOCTYPE svg PUBLIC "-//W3C//DTD SVG 20010904//EN"
 "http://www.w3.org/TR/2001/REC-SVG-20010904/DTD/svg10.dtd">
<svg version="1.0" xmlns="http://www.w3.org/2000/svg"
 width="655.000000pt" height="1280.000000pt" viewBox="0 0 655.000000 1280.000000"
 preserveAspectRatio="xMidYMid meet">
<metadata>
Created by potrace 1.15, written by Peter Selinger 2001-2017
</metadata>
<g transform="translate(0.000000,1280.000000) scale(0.100000,-0.100000)"
fill="#000000" stroke="none">
<path d="M3252 12776 c-6 -13 -90 -397 -187 -853 -169 -789 -177 -832 -172
-913 6 -115 32 -177 135 -329 126 -187 164 -234 203 -255 73 -40 118 -3 272
226 120 178 148 243 154 358 5 81 -4 127 -172 913 -97 456 -181 840 -187 853
-14 31 -32 31 -46 0z"/>
<path d="M1840 11380 c-8 -5 -14 -23 -13 -42 1 -31 236 -1044 268 -1154 20
-70 83 -161 142 -206 53 -40 827 -371 923 -394 30 -8 82 -14 115 -14 33 0 85
6 115 14 75 18 867 352 907 382 58 44 103 98 133 159 21 43 66 218 160 619 72
307 131 574 132 593 2 45 -18 57 -54 34 -16 -9 -307 -303 -648 -652 -389 -398
-635 -642 -662 -656 -24 -14 -59 -23 -83 -23 -24 0 -59 9 -83 23 -26 14 -274
259 -662 657 -341 349 -633 642 -648 652 -18 11 -32 14 -42 8z"/>
<path d="M820 10213 c0 -5 9 -21 19 -38 30 -47 1046 -1145 1083 -1170 19 -13
55 -30 81 -39 95 -32 132 -25 542 104 430 135 446 143 393 204 -15 16 -123 70
-288 145 -146 65 -606 272 -1022 460 -681 306 -808 359 -808 334z"/>
<path d="M5425 10106 c-137 -63 -596 -270 -1020 -460 -423 -191 -781 -358
-794 -370 -27 -27 -22 -58 12 -80 12 -8 189 -66 393 -130 400 -125 434 -131
532 -100 27 9 70 33 95 53 36 28 827 881 1040 1120 101 114 54 108 -258 -33z"/>
<path d="M2760 8911 c-25 -10 -271 -158 -547 -330 -535 -333 -539 -336 -550
-420 -3 -21 0 -55 7 -76 16 -49 209 -268 252 -286 43 -18 105 -16 144 4 34 17
808 887 858 963 37 57 47 131 21 151 -27 19 -131 16 -185 -6z"/>
<path d="M3605 8917 c-26 -20 -16 -94 21 -151 50 -75 824 -946 857 -963 40
-20 102 -22 145 -4 40 17 227 227 249 280 19 45 12 108 -16 154 -17 28 -126
100 -531 352 -285 177 -530 323 -557 331 -59 18 -144 18 -168 1z"/>
<path d="M3202 8443 c-37 -18 -815 -893 -847 -952 -26 -49 -26 -143 0 -192 34
-62 811 -935 849 -953 43 -20 99 -20 142 0 37 18 816 891 849 952 26 50 26
144 0 193 -34 62 -811 935 -849 953 -43 20 -102 20 -144 -1z"/>
<path d="M1244 7775 c-18 -9 -41 -26 -51 -38 -19 -22 -650 -1002 -672 -1043
-21 -41 -24 -128 -7 -186 40 -138 152 -209 260 -164 24 10 150 146 432 466
220 248 408 468 419 488 26 51 27 144 0 194 -24 45 -204 251 -240 274 -36 24
-104 28 -141 9z"/>
<path d="M5180 7772 c-40 -20 -231 -229 -257 -282 -25 -49 -24 -144 2 -192 11
-21 199 -241 419 -489 281 -318 408 -455 432 -465 80 -33 166 -3 221 79 51 77
66 204 31 272 -21 41 -652 1021 -672 1044 -44 50 -116 64 -176 33z"/>
<path d="M1925 6991 c-31 -14 -130 -120 -435 -465 -217 -246 -403 -463 -414
-482 -10 -20 -21 -55 -24 -80 -11 -99 -12 -97 430 -598 279 -316 419 -468 441
-477 42 -18 104 -16 143 4 37 19 809 890 842 949 15 29 22 58 22 98 0 40 -7
69 -22 99 -13 22 -200 242 -417 487 -406 459 -431 484 -501 484 -14 0 -43 -9
-65 -19z"/>
<path d="M4494 6991 c-31 -14 -128 -118 -440 -470 -219 -248 -407 -468 -416
-489 -22 -48 -22 -136 0 -184 23 -50 807 -935 846 -955 51 -27 119 -22 166 13
22 16 215 228 429 471 288 327 393 453 406 487 21 55 17 128 -11 179 -10 20
-198 238 -416 485 -326 368 -405 453 -438 466 -52 20 -75 20 -126 -3z"/>
<path d="M290 6047 c-53 -27 -90 -127 -90 -243 0 -115 16 -120 90 -33 64 78
80 108 87 169 9 76 -37 132 -87 107z"/>
<path d="M6186 6018 c-42 -59 -5 -162 97 -272 79 -84 103 -87 100 -12 -3 85
-124 306 -168 306 -8 0 -21 -10 -29 -22z"/>
<path d="M633 5534 c-34 -17 -490 -527 -534 -597 -38 -62 -76 -163 -89 -239
-7 -42 -10 -139 -8 -260 7 -307 15 -325 361 -716 153 -172 251 -275 273 -286
42 -20 94 -21 138 -2 23 9 154 151 432 466 219 248 408 468 419 488 26 51 27
144 0 194 -27 52 -800 925 -839 949 -38 23 -109 25 -153 3z"/>
<path d="M3204 5536 c-35 -15 -817 -894 -849 -954 -26 -49 -26 -144 -1 -192
32 -59 814 -937 851 -954 42 -20 98 -20 140 0 37 17 819 895 851 955 25 47 24
142 -1 191 -11 20 -200 240 -419 489 -277 313 -410 456 -433 465 -41 17 -99
17 -139 0z"/>
<path d="M5764 5531 c-40 -24 -812 -897 -839 -948 -14 -26 -20 -57 -20 -98 0
-41 6 -72 20 -97 11 -21 200 -241 419 -489 279 -315 409 -456 432 -465 48 -20
104 -17 147 9 21 12 144 143 283 301 331 377 344 405 344 731 0 218 -13 287
-75 410 -39 79 -75 124 -284 360 -132 148 -254 277 -273 287 -43 24 -115 23
-154 -1z"/>
<path d="M1925 4081 c-31 -14 -129 -118 -435 -465 -217 -246 -404 -463 -414
-483 -29 -54 -32 -131 -8 -186 28 -64 811 -950 855 -968 41 -17 93 -17 135 0
38 16 812 884 850 953 27 51 29 136 4 190 -9 20 -197 240 -416 489 -411 465
-435 489 -506 489 -14 0 -43 -9 -65 -19z"/>
<path d="M4494 4081 c-33 -15 -125 -114 -440 -470 -220 -248 -407 -468 -416
-489 -22 -48 -22 -136 0 -184 27 -58 815 -943 854 -959 54 -23 113 -16 159 17
21 16 214 228 428 471 288 327 393 453 406 487 21 55 17 128 -11 179 -10 20
-197 237 -414 483 -405 459 -431 484 -500 484 -14 0 -44 -9 -66 -19z"/>
<path d="M101 3357 c-18 -18 -13 -89 19 -266 35 -188 44 -216 76 -238 43 -28
109 7 144 78 26 49 27 150 2 196 -25 47 -172 213 -203 228 -20 11 -29 11 -38
2z"/>
<path d="M6414 3360 c-27 -11 -179 -184 -206 -234 -13 -26 -20 -58 -20 -96 0
-153 152 -255 200 -133 17 42 72 353 72 405 0 51 -15 70 -46 58z"/>
<path d="M635 2626 c-37 -16 -198 -196 -225 -252 -31 -63 -43 -146 -30 -207 8
-36 104 -217 319 -602 336 -603 331 -595 421 -595 36 0 56 6 83 28 47 35 399
437 423 482 25 49 25 143 -1 193 -27 51 -799 923 -838 948 -37 22 -107 25
-152 5z"/>
<path d="M3204 2626 c-36 -16 -817 -895 -848 -954 -29 -55 -27 -147 5 -200 13
-22 200 -240 416 -484 404 -458 425 -478 498 -478 73 0 94 20 498 478 216 244
403 462 416 484 32 53 34 145 5 200 -10 20 -199 240 -418 488 -280 318 -409
456 -432 466 -42 18 -100 17 -140 0z"/>
<path d="M5764 2621 c-52 -32 -826 -913 -846 -963 -23 -59 -22 -114 5 -170 26
-55 406 -490 443 -507 14 -6 44 -11 68 -11 85 0 83 -3 415 590 167 300 310
568 318 595 16 61 9 131 -20 203 -27 64 -189 250 -234 269 -46 19 -113 16
-149 -6z"/>
<path d="M1927 1173 c-52 -21 -422 -438 -438 -493 -27 -89 19 -161 134 -209
40 -16 297 -127 572 -246 412 -178 511 -217 561 -222 73 -7 155 10 180 38 27
30 21 100 -13 159 -15 27 -208 252 -427 501 -411 465 -436 489 -506 488 -14 0
-42 -7 -63 -16z"/>
<path d="M4494 1171 c-33 -15 -125 -114 -440 -470 -220 -248 -412 -474 -427
-501 -35 -60 -41 -128 -14 -158 26 -28 107 -46 181 -39 50 5 149 44 561 222
275 119 532 230 572 246 115 48 161 120 134 208 -7 27 -71 106 -205 258 -232
263 -259 280 -362 234z"/>
</g>
</svg>
